<mxfile host="app.diagrams.net" modified="2024-03-20T11:43:49.277Z" agent="Mozilla/5.0 (Windows NT 10.0; Win64; x64) AppleWebKit/537.36 (KHTML, like Gecko) Chrome/122.0.0.0 Safari/537.36" version="24.0.7" etag="t-nvbB_asqkkoon7N9Bg" type="github">
  <diagram name="Halaman-1" id="c04F6M150yEZKeXTSN4I">
    <mxGraphModel>
      <root>
        <mxCell id="0" />
        <mxCell id="1" parent="0" />
      </root>
    </mxGraphModel>
  </diagram>
</mxfile>
